<?xml version="1.0" encoding="utf-8"?>
<!-- Generator: Adobe Illustrator 26.1.0, SVG Export Plug-In . SVG Version: 6.00 Build 0)  -->
<svg version="1.1" id="Layer_1" xmlns="http://www.w3.org/2000/svg" xmlns:xlink="http://www.w3.org/1999/xlink" x="0px" y="0px"
	 viewBox="0 0 18.6 9.4" style="enable-background:new 0 0 18.6 9.4;" xml:space="preserve">
<style type="text/css">
	.st0{fill:#FFFFFF;}
</style>
<g id="a">
</g>
<g id="b">
	<g id="c">
		<g>
			<path class="st0" d="M0,0h2C3,0,3.6,0.6,3.6,1.4S3,2.8,2.1,2.8H0.8v1.5H0V0z M2,2.1c0.5,0,0.8-0.3,0.8-0.7S2.5,0.7,2,0.7H0.8v1.4
				L2,2.1L2,2.1z"/>
			<path class="st0" d="M6.4,1h0.8v3.3H6.4v-1C6.2,4,5.8,4.4,5.2,4.4c-0.7,0-1.2-0.5-1.2-1.5V1h0.8v1.8c0,0.6,0.2,0.9,0.7,0.9
				c0.5,0,0.8-0.3,0.8-1L6.4,1L6.4,1z"/>
			<path class="st0" d="M8.3,4.3H7.6V1h0.8v1.1C8.5,1.4,8.9,1,9.5,1h0.2v0.7H9.5c-0.9,0-1.1,0.3-1.1,1L8.3,4.3L8.3,4.3z"/>
			<path class="st0" d="M13.1,3.2c-0.2,0.8-0.8,1.2-1.6,1.2c-1,0-1.6-0.7-1.6-1.7s0.6-1.7,1.6-1.7s1.6,0.7,1.6,1.7
				c0,0.1,0,0.2,0,0.2h-2.4c0.1,0.5,0.4,0.9,0.9,0.9c0.4,0,0.7-0.2,0.8-0.6L13.1,3.2L13.1,3.2z M12.3,2.3c-0.1-0.5-0.4-0.8-0.8-0.8
				s-0.8,0.3-0.9,0.8H12.3z"/>
			<path class="st0" d="M14.2,4.3h-0.8V1h0.8v0.9c0.1-0.7,0.5-1,1.1-1s1,0.4,1,1.1c0.1-0.7,0.5-1.1,1.1-1.1c0.7,0,1.1,0.6,1.1,1.5
				v1.9h-0.8V2.5c0-0.6-0.2-0.9-0.7-0.9c-0.5,0-0.8,0.4-0.8,1v1.8h-0.8V2.5c0-0.6-0.2-0.9-0.7-0.9c-0.5,0-0.8,0.4-0.8,1L14.2,4.3
				L14.2,4.3z"/>
			<path class="st0" d="M2,4.9c1.2,0,2,0.9,2,2.2S3.3,9.4,2,9.4S0,8.5,0,7.1S0.8,4.9,2,4.9z M2,8.7c0.8,0,1.3-0.6,1.3-1.5
				S2.8,5.6,2,5.6S0.8,6.2,0.8,7.1S1.3,8.7,2,8.7z"/>
			<path class="st0" d="M7.7,4.8v4.4H7v-1C6.8,8.9,6.4,9.4,5.8,9.4C5,9.4,4.4,8.6,4.4,7.6S5,5.9,5.8,5.9c0.6,0,1,0.4,1.2,1.1V4.9
				C7,4.9,7.7,4.9,7.7,4.8z M6.1,6.5c-0.6,0-0.9,0.4-0.9,1.1s0.3,1.1,0.9,1.1S7,8.3,7,7.6S6.6,6.5,6.1,6.5z"/>
			<path class="st0" d="M9.7,5.9c1,0,1.6,0.5,1.6,1.4v2h-0.8V8.4C10.4,9,9.9,9.4,9.2,9.4S8.1,9,8.1,8.4s0.5-1,1.3-1h1.1V7.3
				c0-0.5-0.3-0.8-0.9-0.8S8.9,6.8,8.9,7.2H8.2C8.2,6.4,8.7,5.9,9.7,5.9z M9.4,7.9C9,7.9,8.8,8.1,8.8,8.3c0,0.3,0.2,0.4,0.7,0.4
				c0.6,0,1.1-0.3,1.1-0.8V7.9L9.4,7.9L9.4,7.9z"/>
		</g>
	</g>
</g>
</svg>
