<?xml version="1.0" encoding="UTF-8"?><svg xmlns="http://www.w3.org/2000/svg" viewBox="0 0 18.57 9.37"><g id="a"/><g id="b"><g id="c"><g><path d="M.04,0H2.05c.93,0,1.58,.58,1.58,1.4s-.66,1.41-1.58,1.41H.83v1.47H.04V0ZM2,2.13c.52,0,.85-.28,.85-.73s-.32-.72-.84-.72H.83v1.44H2Z"/><path d="M6.4,.98h.75v3.3h-.75v-.97c-.15,.67-.58,1.06-1.19,1.06-.73,0-1.15-.55-1.15-1.51V.98h.75v1.8c0,.61,.25,.92,.74,.92,.53,0,.84-.35,.84-.97V.98Z"/><path d="M8.34,4.28h-.75V.98h.75v1.1c.14-.68,.52-1.1,1.19-1.1h.17v.71h-.25c-.85,0-1.12,.33-1.12,1.02v1.57Z"/><path d="M13.07,3.17c-.17,.75-.76,1.2-1.55,1.2-.98,0-1.64-.7-1.64-1.74s.65-1.73,1.62-1.73,1.58,.68,1.58,1.73c0,.08,0,.15-.01,.24h-2.45c.06,.55,.4,.88,.92,.88,.39,0,.66-.19,.8-.56h.72Zm-.73-.85c-.08-.52-.37-.8-.83-.8s-.79,.3-.88,.8h1.71Z"/><path d="M14.21,4.28h-.75V.98h.75v.94c.15-.66,.54-1.03,1.11-1.03s.96,.41,1.05,1.15c.12-.72,.53-1.15,1.13-1.15,.68,0,1.07,.55,1.07,1.51v1.88h-.75v-1.8c0-.61-.22-.92-.67-.92-.48,0-.76,.35-.76,.97v1.76h-.75v-1.8c0-.61-.22-.92-.67-.92-.48,0-.76,.35-.76,.97v1.76Z"/><path d="M2.05,4.91c1.21,0,2.05,.89,2.05,2.23s-.84,2.23-2.05,2.23-2.05-.89-2.05-2.23,.84-2.23,2.05-2.23Zm0,3.76c.79,0,1.26-.56,1.26-1.53s-.47-1.53-1.26-1.53-1.26,.56-1.26,1.53,.47,1.53,1.26,1.53Z"/><path d="M7.71,4.85v4.43h-.75v-1.01c-.16,.68-.58,1.1-1.17,1.1-.8,0-1.36-.72-1.36-1.74s.57-1.74,1.36-1.74c.58,0,1.01,.41,1.17,1.1v-2.14h.75Zm-1.65,1.69c-.57,0-.88,.38-.88,1.09s.31,1.09,.88,1.09,.9-.4,.9-1.09-.33-1.09-.9-1.09Z"/><path d="M9.7,5.89c.99,0,1.58,.53,1.58,1.43v1.96h-.75v-.86c-.15,.59-.64,.95-1.31,.95s-1.16-.39-1.16-.98,.5-.99,1.33-.99h1.15v-.08c0-.5-.32-.8-.85-.8s-.78,.25-.78,.64h-.75c0-.78,.59-1.27,1.54-1.27Zm-.27,2.03c-.41,0-.62,.14-.62,.41,0,.28,.24,.44,.67,.44,.61,0,1.05-.32,1.05-.75v-.09h-1.1Z"/></g></g></g></svg>